<svg width="17" height="17" viewBox="0 0 17 17" fill="none" xmlns="http://www.w3.org/2000/svg">
<path fill-rule="evenodd" clip-rule="evenodd" d="M16.788 0.200595C16.7244 0.136996 16.6491 0.0865556 16.566 0.0521352C16.4829 0.0177147 16.3938 0 16.3038 0C16.2139 0 16.1247 0.0177147 16.0416 0.0521352C15.9585 0.0865556 15.8833 0.136996 15.8197 0.200595L0.203694 15.8188C0.139214 15.8821 0.0876515 15.9576 0.0526867 16.0409C0.0177218 16.1242 0 16.2136 0 16.3039C0 16.3942 0.0177218 16.4837 0.0526867 16.567C0.0876515 16.6502 0.139214 16.7257 0.203694 16.789C0.266589 16.8536 0.341568 16.9047 0.424812 16.9393C0.508056 16.9739 0.597683 16.9913 0.687831 16.9903C0.869381 16.9891 1.04308 16.9168 1.17197 16.789L16.788 1.17159C16.8526 1.10831 16.9039 1.03278 16.939 0.949412C16.974 0.866046 16.9921 0.776521 16.9921 0.686092C16.9921 0.595663 16.974 0.506151 16.939 0.422785C16.9039 0.339419 16.8526 0.263874 16.788 0.200595ZM16.788 15.8188L1.17197 0.200595C1.1082 0.137006 1.03244 0.0866018 0.94919 0.0522518C0.865941 0.0179018 0.777059 0.000283532 0.687001 0.000401837C0.596942 0.000520143 0.507555 0.0183702 0.424397 0.0529388C0.341239 0.0875074 0.265632 0.138122 0.202035 0.201878C0.138437 0.265634 0.0882858 0.341284 0.0539312 0.424522C0.0195767 0.507759 0.00195591 0.596953 0.00207428 0.686999C0.00219264 0.777046 0.0197728 0.866188 0.0543461 0.949334C0.0889194 1.03248 0.139929 1.108 0.203694 1.17159L15.8197 16.789C15.8829 16.8549 15.9587 16.9075 16.0425 16.9437C16.1263 16.9799 16.2163 16.9991 16.3076 17C16.3988 17.0009 16.4894 16.9836 16.5739 16.949C16.6584 16.9145 16.7351 16.8634 16.7996 16.7988C16.8641 16.7342 16.9149 16.6574 16.9493 16.5728C16.9837 16.4882 17.001 16.3977 17 16.3064C16.9989 16.2151 16.9795 16.125 16.9431 16.0412C16.9067 15.9575 16.854 15.8819 16.788 15.8188Z" fill="#B3B3B3"/>
</svg>
